<svg xmlns="http://www.w3.org/2000/svg" xmlns:xlink="http://www.w3.org/1999/xlink" version="1.1" style="" xml:space="preserve" width="430" height="98"><rect id="backgroundrect" width="100%" height="100%" x="0" y="0" fill="none" stroke="none"/>
<style type="text/css">
	.st0{fill:#FFFFFF;stroke:#FFFFFF;stroke-miterlimit:10;}
</style>

<g class="currentLayer" style=""><title>Layer 1</title><g id="svg_1" class="" transform="">
	<path class="st0" d="M 51.2 52.5 H 30.4 c -2.3 0 -3.1 -1.4 -3.1 -3.3 c 0 -1.6 0 -49.2 0 -49.2 h -7.3 v 55.9 c 0 2.3 2 3.9 3.5 3.9 H 51.2 V 52.5 Z" id="svg_2" transform=""/>
	<path class="st0" d="M 51.2 62.5 v 7.3 H 14.4 c -2.5 0 -4.3 -1.9 -4.3 -4.3 c 0 -2.9 0 -65.5 0 -65.5 h 7.3 v 58 c 0 2.5 1.1 4.5 4.2 4.5 H 51.2 Z" id="svg_3" transform=""/>
	<path class="st0" d="M 0.100002 0 h 7.3 v 67.5 c 0 2.4 1.2 5 4.8 5 h 39 v 7.3 H 8.7 c -4.8 0 -8.7 -4 -8.7 -8.8 v -71 H 0.100002 Z" id="svg_4" transform=""/>
	<path class="st0" d="M 30.1 0 h 7.3 v 39.6 c 0 1.4 0.7 2.8 2.7 2.8 h 11 v 7.3 H 33.8 c -2.7 0 -3.7 -1.7 -3.7 -3.6 V 0 Z" id="svg_5" transform=""/>
	<path class="st0" d="M 40.2 27.3 h 20.7 c 2.3 0 3 1.4 3 3.3 c 0 1.6 0 49.2 0 49.2 h 7.3 v -55.9 c 0 -2.3 -2 -3.9 -3.5 -3.9 H 40.2 V 27.3 Z" id="svg_6" transform=""/>
	<path class="st0" d="M 40.2 17.3 v -7.3 h 36.8 c 2.5 0 4.3 1.9 4.3 4.3 c 0 2.9 0 65.5 0 65.5 h -7.3 v -58 c 0 -2.5 -1.1 -4.5 -4.2 -4.5 H 40.2 Z" id="svg_7" transform=""/>
	<path class="st0" d="M 91.2 79.8 h -7.3 v -67.5 c 0 -2.4 -1.2 -5 -4.8 -5 H 40.2 v -7.3 h 42.4 c 4.8 0 8.7 4 8.7 8.8 v 71 H 91.2 Z" id="svg_8" transform=""/>
	<path class="st0" d="M 61.2 79.8 h -7.3 v -39.6 c 0 -1.4 -0.7 -2.8 -2.7 -2.8 H 40.2 v -7.3 h 17.3 c 2.7 0 3.7 1.7 3.7 3.6 V 79.8 Z" id="svg_9" transform=""/>
	<path class="st0" d="M 258.5 45.3 c 0 -2.5 1.9 -4.5 4.4 -4.5 h 6.5 v -7.3 h -7.7 c -5.9 0 -10.5 4.8 -10.5 10.6 V 79.8 h 7.4 L 258.5 45.3 Z" id="svg_10" transform=""/>
	<rect x="144.1" y="33.3" class="st0" width="7.4" height="46.5" id="svg_11" transform=""/>
	<path class="st0" d="M 268.4 97.6 h 7.4 v -24.4 c 4.4 4.3 10.5 7 17.1 7 c 8.8 0 16.6 -4.7 20.9 -11.7 c 4.3 7 12.1 11.7 20.9 11.7 s 16.6 -4.7 20.9 -11.7 c 4.3 7 12.1 11.7 20.9 11.7 c 13.6 0 24.6 -11 24.6 -24.6 s -11 -24.6 -24.6 -24.6 c -8.8 0 -16.6 4.7 -20.9 11.7 c -4.3 -7 -12.1 -11.7 -20.9 -11.7 s -16.6 4.7 -20.9 11.7 c -4.3 -7 -12.1 -11.7 -20.9 -11.7 c -13.6 0 -24.6 11 -24.6 24.6 v 42 H 268.4 Z M 376.6 38.4 c 9.5 0 17.2 7.7 17.2 17.2 s -7.7 17.2 -17.2 17.2 s -17.2 -7.7 -17.2 -17.2 C 359.3 46.2 367.1 38.4 376.6 38.4 M 334.7 38.4 c 9.5 0 17.2 7.7 17.2 17.2 S 344.2 72.8 334.7 72.8 s -17.2 -7.7 -17.2 -17.2 C 317.5 46.2 325.2 38.4 334.7 38.4 M 292.9 38.4 c 9.5 0 17.2 7.7 17.2 17.2 s -7.7 17.2 -17.2 17.2 s -17.2 -7.7 -17.2 -17.2 C 275.7 46.2 283.4 38.4 292.9 38.4" id="svg_12" transform=""/>
	<path class="st0" d="M 223 79.9 c 11.3 0 20.9 -7.6 23.6 -18.5 h -7.1 c -2.5 7 -9 11.7 -16.5 11.7 c -9 0 -16.5 -6.8 -17.4 -16 h 41.7 v -1.4 c 0 -13.4 -10.9 -24.3 -24.3 -24.3 s -24.3 10.9 -24.3 24.3 C 198.7 69 209.6 79.9 223 79.9 M 223 38.2 c 7.4 0 14.1 4.7 16.6 12.1 h -33.2 C 208.8 42.9 215.6 38.2 223 38.2" id="svg_13" transform=""/>
	<polygon class="st0" points="182.4 79.8 200.9 33.3 192.5 33.3 177.7 70.7 162.8 33.3 154.4 33.3 172.9 79.8" id="svg_14" transform=""/>
	<rect x="404.7" y="17.4" class="st0" width="7.4" height="62.4" id="svg_15" transform=""/>
	<path class="st0" d="M 118.8 17.4 v 50.7 c 0 2.5 1.5 4.5 4.4 4.5 h 18 v 7.2 h -24.9 c -3.1 0 -5 -1.9 -5 -4.7 v -57.7 L 118.8 17.4 L 118.8 17.4 Z" id="svg_16" transform=""/>
	<path class="st0" d="M 425.5 27.1 c -2.7 0 -4.8 -2.2 -4.8 -4.9 s 2.2 -4.8 4.8 -4.8 c 2.7 0 4.9 2.2 4.9 4.8 C 430.3 24.9 428.2 27.1 425.5 27.1 M 425.5 18.2 c -2.2 0 -4 1.8 -4 4 s 1.8 4 4 4 s 4.1 -1.8 4.1 -4 C 429.5 20 427.7 18.2 425.5 18.2 M 423.4 19.7 h 2.3 c 1.3 0 1.7 0.8 1.7 1.4 c 0 0.8 -0.6 1.5 -1.5 1.5 l 0 0 c 0.4 0.2 0.8 0.6 1.2 1.3 l 0.6 1 h -1 l -0.5 -0.8 c -0.7 -1.2 -0.9 -1.4 -1.6 -1.4 H 424.2 v 2.2 h -0.8 V 19.7 Z M 425.4 22 c 0.6 0 1.1 -0.2 1.1 -0.8 c 0 -0.5 -0.4 -0.8 -0.9 -0.8 H 424.2 v 1.6 H 425.4 Z" id="svg_17" transform=""/>
	<rect x="144" y="17.4" class="st0" width="7.4" height="7.5" id="svg_18" transform=""/>
</g></g></svg>